<svg width="1024" height="1024" viewBox="0 0 1024 1024" fill="none" xmlns="http://www.w3.org/2000/svg">
<circle cx="512" cy="512" r="512" fill="url(#paint0_linear)"/>
<mask id="path-2-inside-1" fill="white">
<path d="M543.13 563.022C526.393 581.47 497.607 581.47 480.87 563.022L267.183 327.498C242.354 300.131 261.569 256 298.313 256L725.687 256C762.431 256 781.646 300.131 756.817 327.498L543.13 563.022Z"/>
<path d="M526.076 768H497.923L483.846 739.556V540.444H540.152V739.556L526.076 768Z"/>
</mask>
<path d="M725.687 256L725.687 304L725.687 256ZM756.817 327.498L792.366 359.751L792.366 359.751L756.817 327.498ZM267.183 327.498L231.634 359.751L231.634 359.751L267.183 327.498ZM298.313 256L298.313 208L298.313 256ZM480.87 563.022L516.419 530.769L480.87 563.022ZM543.13 563.022L507.581 530.769L507.581 530.769L543.13 563.022ZM497.923 768L454.902 789.29L468.121 816H497.923V768ZM526.076 768V816H555.878L569.096 789.29L526.076 768ZM540.152 540.444H588.152V492.444H540.152V540.444ZM483.846 540.444V492.444H435.846V540.444H483.846ZM483.846 739.556H435.846V750.783L440.826 760.845L483.846 739.556ZM540.152 739.556L583.173 760.845L588.152 750.783V739.556H540.152ZM516.419 530.769L302.732 295.245L231.634 359.751L445.321 595.275L516.419 530.769ZM298.313 304L725.687 304L725.687 208L298.313 208L298.313 304ZM721.268 295.245L507.581 530.769L578.679 595.275L792.366 359.751L721.268 295.245ZM725.687 304C724.932 304 723.505 303.678 722.185 302.763C721.073 301.992 720.563 301.177 720.332 300.648C720.102 300.119 719.895 299.291 720.057 298.137C720.251 296.747 720.883 295.669 721.268 295.245L792.366 359.751C844.506 302.282 805.08 208 725.687 208L725.687 304ZM302.732 295.245C303.117 295.669 303.749 296.747 303.943 298.137C304.105 299.291 303.898 300.119 303.668 300.648C303.437 301.177 302.927 301.992 301.815 302.763C300.495 303.678 299.068 304 298.313 304L298.313 208C218.92 208 179.494 302.283 231.634 359.751L302.732 295.245ZM445.321 595.275C481.107 634.719 542.893 634.719 578.679 595.275L507.581 530.769C509.893 528.221 514.107 528.221 516.419 530.769L445.321 595.275ZM497.923 816H526.076V720H497.923V816ZM540.152 492.444H483.846V588.444H540.152V492.444ZM435.846 540.444V739.556H531.846V540.444H435.846ZM440.826 760.845L454.902 789.29L540.943 746.71L526.866 718.266L440.826 760.845ZM492.152 540.444V739.556H588.152V540.444H492.152ZM497.132 718.266L483.056 746.71L569.096 789.29L583.173 760.845L497.132 718.266Z" fill="#FCA5A5" mask="url(#path-2-inside-1)"/>
<defs>
<linearGradient id="paint0_linear" x1="-2.3827e-05" y1="512" x2="530" y2="1004" gradientUnits="userSpaceOnUse">
<stop stop-color="#EC4899"/>
<stop offset="1" stop-color="#F97316"/>
</linearGradient>
</defs>
</svg>
